<svg xmlns="http://www.w3.org/2000/svg" viewBox="0 0 172.17 161.12"><title>thoth</title><g id="bf558934-a309-4551-9b48-1ca211ccfc53" data-name="Calque 2"><g id="a95cc25b-6318-4974-9aac-fa7d67878815" data-name="Calque 1"><path d="M108.35,10.6S102.63,2.45,94,1.76,72.63,3.32,63.26,11.81,48.17,44.59,47.65,46.15,39.5,56.9,41.06,59.51s3.47,5.72,1.39,7.11a33.07,33.07,0,0,0-8,6.41C31,76.85,30,81.53,30.14,87.43a45.82,45.82,0,0,1-.35,8.67l-1.73.35,0,11.92,1.19.56s-.87,4.34-.52,13.7,2.6,15.44,3.12,16.48,0,4.85.18,5.89a7.75,7.75,0,0,0,5,4.51c2.61.52,17.52-.17,17.52-.17L52.68,154s27.09-4.52,32.47-3.78c6.86.94,20.49,2.1,20.49,2.1l27.23-3,10.34-9.51s-8.84-5.72-11.45-9.36-4.68-7.11-4.16-12.14,2.08-19.25,2.43-23.94-2.82-8.86-2.82-8.86.57-9-.65-13.33-4.16-7.29-6.94-11.62S106.27,40.6,105.75,33s1.91-10.4,5-12.83,16.13,2.25,16.13,2.25,4.16,2.43,5.89,4.51,1.74.7.35-2.43-4.33-7.8-8.32-9.36-15.61-4.34-15.61-4.34" fill="#fff"/><path d="M58.93,16s-5.21,13.18-2.43,33S65,73.21,65,73.21l1.56-.87S60,64.71,57.89,45.63,58.93,16,58.93,16Z" fill="#343736"/><path d="M62.71,12.57s-4.87,13.67-1.59,33.9,9.11,24.72,9.11,24.72l1.54-.93S65,62.59,62.42,43.05,62.71,12.57,62.71,12.57Z" fill="#343736"/><path d="M65.81,10s-4.05,14.48.41,35.34S76.78,70.54,76.78,70.54l1.48-1.05S71,61.88,67.32,41.71,65.81,10,65.81,10Z" fill="#343736"/><path d="M69,7.43S66.1,22.92,72.21,44.55s12.55,25.8,12.55,25.8l1.39-1.21S78.34,61.63,73,40.67,69,7.43,69,7.43Z" fill="#343736"/><path d="M71.61,6.35S69.78,22.27,77.36,43.9,91.64,69.37,91.64,69.37L93,68.06s-8.32-7.16-15-28.16S71.61,6.35,71.61,6.35Z" fill="#343736"/><path d="M81.82,3.14A11.82,11.82,0,0,0,75.57,11,41.49,41.49,0,0,0,75,29.5c1.21,6.59,4.68,18.73,4.68,18.73s8,21.51,13.35,21.51a43.74,43.74,0,0,0,7.89-.52s-9-8.85-11.09-12.14S78.52,32.63,78.18,29.85s7.11,1.3,7.45,2.17-3.64-6-5.72-10-3.45-7.31-2.17-11.71c.78-2.69,3-4.76,6.51-5.72s7.54-.7,10,1.56,2.69,6.15,2.69,6.15,9.45.18,16.21,1.83c6.5,1.58,10,2.94,15.18,6.5,4.45,3.05,6,3.67,4.24,1.13s-3.64-7-12.83-10.67-10.14-2.77-14-4-4.68-5-9.71-5.55S81.82,3.14,81.82,3.14Z" fill="#343736"/><path d="M60.66,74s8.06-3.73,14-4.25S94,69.22,94,69.22,98.38,69,99.42,69a5.36,5.36,0,0,1,2,.44l6.68,18.64-8-17.25,4.6,17.51L98.29,71.21l3,16.74L96.39,71.3l1.38,16.47-3-16.38.52,16-2.17-16-1.56,15L91.27,71.3,88.93,85.78l.52-14.39L86.76,84.65l1-13.26L84.59,84.74a46.24,46.24,0,0,1-10.06-3.9C69.07,78,60.66,74,60.66,74Z" fill="#343736"/><polygon points="103.67 70.52 111.47 86.39 105.06 70.34 103.67 70.52" fill="#343736"/><path d="M63.7,73.21s-1.74.69-3-1.56-6.33-15.27-6.24-22.9.17-1.3-1.56,2.87-3.39,9.71-5.12,10.66,5.2,6.07,7.28,7.89a45.53,45.53,0,0,0,11.62,7.2c1.8.82,10.84,5.63,18,7.37s-10.14-5-10.14-5Z" fill="#343736"/><path d="M103.15,69A11.89,11.89,0,0,0,108.09,63c1.48-4.16,2.26-6.67,2.17-9.1S104,35.23,104,35.23,112.6,52.66,114.42,56s7.63,10.14,8.93,11.53,3.47,3.73,3.73,7.2.17,12,.17,12l.18,1.48s-8,3.87-20.81,3.73c-15-.18-22-2.35-35.29-8.76a76.23,76.23,0,0,1-9.72-5.64s21.25,10.32,33.56,12,21.85-1.39,22.72-1.82a14.46,14.46,0,0,0,4-3.64c.61-1.13.17-5.9-1.48-3.91s-4.07,4.69-4.76,5S107,70.43,107,70.43Z" fill="#343736"/><path d="M87.45,26.64s3.39-11.18,8.85-11.27a100,100,0,0,1,17.17,1.3c5.19,1,11.82,3.09,15.09,6.42,3.5,3.56-1.31.43-2.87.17s-7.71-2.43-15.52-1.65-6.59,8.85-6.5,9.71,8.32,16.22,9.8,18.73S121.1,63,121.1,63a125.58,125.58,0,0,1-10.84-16.56c-4.42-8.41-6.07-13-6.33-12.22s-2.6,4.16-3.21,12.22.78,14.92,1.74,16.22,3.9,6.15.6,4.59-4.25-8-10.06-17.34S79.56,34.1,80.17,32.11s2,1.12,3.9-1.65A16.08,16.08,0,0,1,87.45,26.64Z" fill="#343736"/><path d="M90.28,14.87c-.4,0-.84,0-1.33,0-4.53-.28-7.65-1.94-8.74-3.46a4.9,4.9,0,0,0-1.83-1.68A1.17,1.17,0,0,1,77,9.62c-.62-.52-.57-1.34.21-3.15A1,1,0,0,1,78.75,6a6.21,6.21,0,0,0,2.87,1.25,4.47,4.47,0,0,0,.88-.48,7.8,7.8,0,0,1,6.2-1.36C93,6.32,93.86,8,94.77,9.69a7.55,7.55,0,0,0,2.93,2.42,1.05,1.05,0,0,1,.56.75,1,1,0,0,1-.29.89l-.11-.11a2.26,2.26,0,0,1-1.39.34c-1.56,0-1.92.07-2.25.07l-.19.09A7.23,7.23,0,0,1,90.28,14.87Z" fill="#343736"/><ellipse cx="87.76" cy="9.65" rx="1.52" ry="2.34" fill="#343736"/><path d="M94.82,11c3-.48-.06-6.13-1.66-6.61,1.18-.3,3.2.77,4,1.67,1,1.08.75,2.82.74,4.2a2.23,2.23,0,0,1-1.06,2.09A1.29,1.29,0,0,1,94.82,11Z" fill="#343736"/><path d="M108.44,23c-.86,0-1.9,1.89-2.43,2.48-.9,1-2.08,2.88-2.08,4.28A9.43,9.43,0,0,0,105,35c.57,1,1,1.84,1.61,2.83a.83.83,0,0,0,.21-.06c0-1.25-.72-2.39-.84-3.64s-.16-2.39-.28-3.6C105.41,27.92,106.76,25.35,108.44,23Z" fill="#343736"/><path d="M55.11,26.9c.25,2-1.34,3.57-2.09,5.1a34.47,34.47,0,0,0-1.75,5c-.64,2.06-1.33,4.13-2,6.22-.35,1.17,2,1.15,1.8,2.38S51.31,50,51,51.18c-1,3.53-3.59,6.53-4.51,10.06-.4,1.55-1.63,1.45-1.56,3.62a8.65,8.65,0,0,0,2.77,5.41c1.42,1.23,3.53,1.86,5.06,3.07s3.82,2.33,4.81,3.65c-2.72.13-4.57.68-6.38,2.79-.73.84-1.62,2.58-2.76,2.81-2,.4-1.81-1.78-2.29-3.06a10.76,10.76,0,0,0-4.69-5.82c-2.2-1.19-3.45.82-4.93,2.4-1,1-1.9,2.24-2.78,3.36s-1.17,2.7-2.15,3.29a11.94,11.94,0,0,1,1.55-6.65c.63-1,2.49-2.74,3-3.64s2.3-2.22,3-3.12c2.83-3.75,5.26-5,5.8-9.73a48,48,0,0,1,1.92-8.26" fill="#343736"/><path d="M34.85,94.77a5.4,5.4,0,0,0,2.59-.49c2.25-.91,4.15-2.48,6.22-3.74s4.49-2.24,6.87-1.78a8,8,0,0,0,1.81.29c2.73-.16,3.21-4.38,5.69-5.5a.67.67,0,0,1,.55-.06.72.72,0,0,1,.29.41c.63,1.67.31,3.54.62,5.3.59,3.26,3.24,5.72,5.92,7.67,1.07.77,2.28,1.73,2.24,3-1.78-.13-4.06,0-4.68,1.71-.72,1.94,1.59,3.83,1.44,5.9a2.69,2.69,0,0,1-3.53,2.2c2.21,3.08,2.8,7.14,5.19,10.08,2.14,2.64,5.42,4,8.56,5.31l-11.45,1c-.21-1.35-2.24-1.45-3.32-.63s-1.73,2.16-2.9,2.85-2.82.58-4.27.43a125.19,125.19,0,0,0-13.83-.67c3.18-.27,4-.39,6.71-2a31,31,0,0,0,3.66-2.65c.31-.36,2.2-2.82,2.41-3.25,2.43-5,2.94-8.75,1-14,.79-.79,2.53.31,3.1-.65a1.53,1.53,0,0,0,.13-.85L55.35,94a.57.57,0,0,0-.68-.65,78,78,0,0,0-19.86,1.9,8.49,8.49,0,0,0-3.37,1.33,3.12,3.12,0,0,0-1.27,3.2c-.42-1.38-.44-10.76.69-11.15C31,91.11,31.81,94.44,34.85,94.77Z" fill="#343736"/><path d="M33.85,106.41c5.26-.31,12.2-.27,17.32-1.49.32.29.82,1.65.45,1.89a16.59,16.59,0,0,1-3.52,0c-3.56-.13-6,.35-9.55.47-2.4.09-5.1.34-7.48.65-.3,0-2.69.46-3,.46-.13,0-.1-6.74,1-7.29,0,.57.14,5.16-.2,5.66C29.12,106.68,31.53,106.55,33.85,106.41Z" fill="#343736"/><path d="M127.36,85.8a6.05,6.05,0,0,0,.66,2c.25.41.61.76.85,1.19a5.15,5.15,0,0,1,.45,2.37c.29,11.14-1,22.25-2.28,33.31.14-.62-.75-.9-1.38-.9l-6.41.07a7,7,0,0,1-2.74-.34,17,17,0,0,1-2.78-1.43c-4.58-3.74-6.42-5.47-11-9.72-1.07-1-3.37-2.9-4.34-4s-2.28-2.43-3.29-3.46c-1.31-1.35-3.07-3.14-4.43-4.43A37,37,0,0,1,87.21,97a27.16,27.16,0,0,0-6.59-5.68c1.75-.57,3.46.87,4.73,2.21q4.8,5,9.37,10.29a3.1,3.1,0,0,0,1.83,1.27c1.52.17,2.3-1.82,2.28-3.35s-.15-3.41,1.14-4.25c1.86,1,1,4,2.3,5.69a5,5,0,0,0,1.58,1.14,10,10,0,0,0,4.58,1.54,10,10,0,0,0,3.9-1.14l7-3.18a2.6,2.6,0,0,0,1-.62,2.73,2.73,0,0,0,.49-1.37l1.32-8.5.61,5.64a2,2,0,0,0,2,2.15l3.24.64a1,1,0,0,1,.75.39c.3.56-.52,1-1.14,1.11a21.31,21.31,0,0,1-3.83.14c-1.45,2.08.11,5.55-1.84,7.19-.37.31-.87.54-1,1a2.23,2.23,0,0,0,.24,1.58c.81,2.17.29,4.59.38,6.9s1.27,5,3.57,5.3a113.86,113.86,0,0,1,2.47-23.16,33.41,33.41,0,0,0,1-5.22c.24-3.11-.56-6.2-1.36-9.22-.35-1.33-1.35-3.43-.94-4.78C126.71,82.38,127.05,84.11,127.36,85.8Z" fill="#343736"/><path d="M54.34,82.32a14.68,14.68,0,0,1,1.27,4.85,9.13,9.13,0,0,1,7.66-.4c3,1.24,5.07,4,7,6.56l3.12,4.21a1.73,1.73,0,0,1,.45,1.07c-.1,1.12-1.89.89-2.75,1.6a2.72,2.72,0,0,0-.63,2.29c.1,2.57.36,5.48,2.37,7.08a5.65,5.65,0,0,1,1.54,1.33,3.23,3.23,0,0,1,.29,2A17.63,17.63,0,0,1,73,119.18a8.64,8.64,0,0,0-1.16,3.16,2.26,2.26,0,0,0,1.76,2.49,3.5,3.5,0,0,1,2-1.62c.87-.19,1.92.44,1.86,1.32,0,.24-.11.52,0,.72a.7.7,0,0,0,.63.22c7.17,0,12.58-6.77,19.57-8.39.29-.07,1.76-.89,2-.78,2.26.87-1-1.64-1.79-2.48-1.38-1.51-2.63-3.16-4.15-4.54-5.42-4.94-7.84-7.18-11.58-10.41A27.33,27.33,0,0,1,79,96.24a3.66,3.66,0,0,1-.79-3.76,1.88,1.88,0,0,0,.28-.78,1.39,1.39,0,0,0-.48-.91c-1.24-1.37-2.66-2.83-2.77-4.67a5.4,5.4,0,0,0-.21-2,3.12,3.12,0,0,0-1.61-1.25l-11.09-5.1c-3.44-1.58-7.35-3.2-10.91-1.88a3.15,3.15,0,0,0-1.94,1.6c-.58,1.46.62,1.67,1.51,2.12C52.45,80.32,53.53,80.79,54.34,82.32Z" fill="#343736"/><path d="M57.66,100.67a81.06,81.06,0,0,0,1.72,16.6,9.7,9.7,0,0,0,2.51,5.16c1.55,1.41,3.75,1.77,5.82,2.07s4,.42,6.22.73c1-5,2.32-9.69,3.31-14.64a21.15,21.15,0,0,0,.6-5.47c-.18-2.73-1.41-5.27-2.61-7.72l-3.54-7.21a13,13,0,0,0-1.78-3c-1.55-1.79-9.67-6-11.51-3.86-1.38,1.57-.7,6-.74,7.92C57.59,94.42,57.6,97.55,57.66,100.67Z" fill="#343736"/><path d="M29.81,110.85c-.25,4.63,1.79,7.23,2.76,7.27,10.52.5-1.6,10.76-1.32,13.77.08.8,1.08,1.61,1.74,1.14.42-.3.37-.93.52-1.42.34-1.08,1.65-1.51,2.78-1.51a9.14,9.14,0,0,0,3.35-.2,16.33,16.33,0,0,0-4.48,2.18,5.57,5.57,0,0,0-2.35,4.22,4.44,4.44,0,0,1-.05,1.21.89.89,0,0,1-.87.71c-.2-.9-.41-1.8-.6-2.7-1.27-6.05-2.58-15.73-2.37-21.91" fill="#343736"/><path d="M57.32,137.21c.56,4,1.41,8.1,4.16,11.06.31-1-.58-1.88-1.06-2.78a9.88,9.88,0,0,1-.67-2.48,36,36,0,0,1-.82-13.51c.14-1.74.6-3.45.76-5.16-2.81-.68-5,1.32-3.79,4a10,10,0,0,1,.86,3.51C57,133.51,57.1,135.64,57.32,137.21Z" fill="#343736"/><path d="M61,135.23a25.93,25.93,0,0,0,.26,4.22A12.85,12.85,0,0,0,64,146.14a7.7,7.7,0,0,0,2.21,2.16,9.17,9.17,0,0,0,4.19.87l5.5.24a6,6,0,0,1,2.2.36,11.5,11.5,0,0,1,1.13.66,8.47,8.47,0,0,0,3.72,1.21,1.63,1.63,0,0,0,.62,0,1.12,1.12,0,0,0,.44-1.52,3.36,3.36,0,0,0-1.27-1.21c-4.15-2.8-8.09-6.63-8.93-11.58l.78,6.24a1.78,1.78,0,0,1-.18,1.31,1.72,1.72,0,0,1-1,.49,27.81,27.81,0,0,1-3.63.51,6.17,6.17,0,0,1-2.19-.13c-2-.58-3.62-3.23-4.18-5.21a29.36,29.36,0,0,1-.7-8.32c.06-2.5,1.74-7.45,2.17-8.84C61.94,123.36,61.16,133.3,61,135.23Z" fill="#343736"/><path d="M77,127.19a21.84,21.84,0,0,0,3.35,16.24,3,3,0,0,1,.79,2.06c-.12.75-1.27,1.23-1.63.57-.57,1.05.33,2.29,1.2,3.11a36.1,36.1,0,0,0,17.93,9.19,18,18,0,0,0,3.8.38,20.43,20.43,0,0,0,6.15-1.35q2.22-.78,4.4-1.7c4-1.7,7.89-3.67,11.76-5.65.89-.45,5.11-1.27,6.06-1,4,1.28.62-.28.69-.7s-4.45-2.29-4.44-2.63a2.29,2.29,0,0,0-.62-1.39l-6.88-9.09c.34.55-.16,1.3-.79,1.45a2.91,2.91,0,0,1-1.85-.38c-1.55-.69-3.06-1.46-4.54-2.28a5.76,5.76,0,0,1-2.06,2.89,3.22,3.22,0,0,1-3.4.25,4.54,4.54,0,0,1,2,2.31c.33,1-3.35.05-4.13.72s-1,.15-1.87-.23c-8.27-3.76-11.56,2.7-18.51,1.21a8,8,0,0,1-1.74-.53,8.61,8.61,0,0,1-1.11-.7,6,6,0,0,1-1.83-1.74,5.86,5.86,0,0,1-.61-2.49c-.33-3.48-.63-7.14.76-10.35a1.42,1.42,0,0,0,.18-.71c-.07-.78-1.42-1-2-.65C77.22,124.52,77.12,126.38,77,127.19Z" fill="#343736"/><path d="M85.88,95.84a90.18,90.18,0,0,0,11,10.3,3.26,3.26,0,0,0,2.32,1c1.27-.18,1.86-1.76,1.68-3s-.86-2.45-1-3.72A10.55,10.55,0,0,0,99.61,98a1.54,1.54,0,0,1-.17-.66c0-.38.44-.62.79-.79,3.74-1.81,7.58-3.66,11.71-4.15.73-.09,1.64-.27,1.81-1a1.23,1.23,0,0,0-1-1.32,4.2,4.2,0,0,0-1.85.2,26.23,26.23,0,0,1-6.91.5,81.46,81.46,0,0,1-28.87-6.31c-2.41-1-2.25,3.07-1.85,4.54A2.75,2.75,0,0,0,76,91.2c1.58.21,3.13,0,4.68.51C82.85,92.43,84.37,94.17,85.88,95.84Z" fill="#343736"/><path d="M105.84,118.31l2.86,1.41L115,122.8,100.14,117a4,4,0,0,0-1.67-.38c-.38,0-2.59.92-2.63.06,0-.62,1.58-1,2-1C100.46,115.37,103.54,117.19,105.84,118.31Z" fill="#343736"/><path d="M106.81,126.2a41.1,41.1,0,0,1,8.49,4.94l4.15,3.11c.19.14,1.18-1.29,1.3-1.09a1.57,1.57,0,0,1,.16.77,4.66,4.66,0,0,1-1.21,3.16,1.08,1.08,0,0,1-.54.38,1.33,1.33,0,0,1-.93-.24l-3.41-1.85c-1.25-.68-2.5-1.36-3.67-2.14-1-.67-2-1.42-3-2A12.84,12.84,0,0,0,98.32,130a49.37,49.37,0,0,1,7.28,2,10.92,10.92,0,0,1,3.12,1.58,4.24,4.24,0,0,1,1.68,3,.84.84,0,0,1-.15.6.88.88,0,0,1-.69.22c-1.7,0-3.3-.7-5-1.07a12.39,12.39,0,0,0-5.25,0,3.57,3.57,0,0,0,2.54.95,28.52,28.52,0,0,1,6.88,1.64c2.53.94,5.13,2.28,7.78,1.79a5.94,5.94,0,0,0,4.16-8.63c-.93-1.75-3.47-1.34-5.13-2.43l-3-1.92a36.14,36.14,0,0,0-4.11-2.44,23.73,23.73,0,0,0-10.29-2.07,2.63,2.63,0,0,0-2,.6c.72.68,4.13.77,5.28.91A18.65,18.65,0,0,1,106.81,126.2Z" fill="#343736"/><path d="M117.14,131.87a2.17,2.17,0,0,1,.29,1.35,7.72,7.72,0,0,1-.32,2c-.2.67-.64,1.41-1.33,1.4-.15,0-.39,0-.37.18a.26.26,0,0,0,.07.11,3.48,3.48,0,0,0,2.62.77,4.1,4.1,0,0,0,1.44-.22,3.41,3.41,0,0,0,1.82-3.24,2.49,2.49,0,0,0-.25-1.24,2.24,2.24,0,0,0-.78-.81,6.85,6.85,0,0,0-2.41-.92c-.49-.11-1.83-.62-2.26-.38A4.69,4.69,0,0,1,117.14,131.87Z" fill="#343736"/><path d="M121.17,132.39a1.5,1.5,0,0,0,1.2-.7,4.18,4.18,0,0,1,.3-.64c.1-.13.25-.22.34-.35a1,1,0,0,0,0-1,5.12,5.12,0,0,0-.64-1.08L119.77,125a19.47,19.47,0,0,1,2.79,2.49,4.77,4.77,0,0,1,1.28,3.41,2.76,2.76,0,0,1-2.31,2.56,4.25,4.25,0,0,1-.94,3.05.84.84,0,0,1-.45.32.61.61,0,0,1-.63-.38,1.76,1.76,0,0,1-.11-.76,22.56,22.56,0,0,1,.18-2.6c0-.41,0-.71.36-.8S120.79,132.42,121.17,132.39Z" fill="#343736"/><path d="M105.29,92c-2-.08-4-.37-5.8.4a5.33,5.33,0,0,0-3.17,4.7A7.11,7.11,0,0,0,96.57,99a12.11,12.11,0,0,0,14.3,8.94,2.63,2.63,0,0,0,1.88-1.09c-1.32-1.47-3.78-1-5.46-2.1a7,7,0,0,1-2.4-3.58,6.83,6.83,0,0,1-.62-2.33,5.42,5.42,0,0,1,2.31-4.08c.57-.47,3.17-1.7,2.58-2.7C108.86,91.54,105.93,92,105.29,92Z" fill="#343736"/><path d="M118.15,124.75a19.28,19.28,0,0,1,2.69,2.73,8.76,8.76,0,0,1,1.39,1.93,2.92,2.92,0,0,1,.2,2.31,4.34,4.34,0,0,0,0-4.93,7.35,7.35,0,0,1-.86-1.23c-.14-.3-.2-.64-.34-.94-.48-1-1.71-1.31-2.79-1.52a27.66,27.66,0,0,0-5.19-.95C114.85,123.13,116.66,123.57,118.15,124.75Z" fill="#343736"/><path d="M88.75,67a8.23,8.23,0,0,1,4.17,6.42c.34,2.42-.35,18.71-.35,18.71L77.31,88.64s2.08-15.79,1.21-17.86a48.76,48.76,0,0,0-2.25-4.51s8.5,3.38,9.36,2.83a15.41,15.41,0,0,0,2.08-1.79Z" fill="#fff"/><path d="M86,10.77a1.7,1.7,0,0,0,.61.45,3.09,3.09,0,0,0,3.26-.38l-.46.91a1,1,0,0,1-.29.37.83.83,0,0,1-.41.1c-.52,0-1,0-1.55,0a5.69,5.69,0,0,1-1.37-.13,5.85,5.85,0,0,1-.91-.34l-1.6-.71a2.08,2.08,0,0,1-1.2-.94,6.72,6.72,0,0,0,1.93.41c-.16-.14-.09-.42.05-.59a1.36,1.36,0,0,0,.35-.54.46.46,0,0,1,0-.2c0-.09.17-.11.28-.12a2.33,2.33,0,0,0,1.17-.56C86.27,9.35,85.28,9.94,86,10.77Z" fill="#fff"/><path d="M115.12,57.25s3.46,16.65,2.25,19.6A94.93,94.93,0,0,0,114.59,86l9.89-2.77,2.25-1s-1.56-4.33-3.29-11.09-6.68-13.88-6.68-13.88Z" fill="#fff"/><path d="M96,15.72s14-1,19.69.26a61.13,61.13,0,0,1,13.87,4.94,6.35,6.35,0,0,1,2.54,2.52c.22.52.19,1.32-.36,1.42a1.15,1.15,0,0,1-.82-.32c-2.47-1.82-5.49-2.69-8.44-3.53l-5-1.42a24,24,0,0,0-2.63-.64,25.13,25.13,0,0,0-3.25-.26l-8.34-.27a31,31,0,0,1-6.6-.69,1.82,1.82,0,0,1-1.15-.64C95.18,16.72,95.5,15.74,96,15.72Z" fill="#343736"/><path d="M121.17,88.61a5.36,5.36,0,0,0,2.31-.87c.5-.41.85-1,1.33-1.42a1.57,1.57,0,0,1,1.78-.39,2,2,0,0,1,.58.64,20.28,20.28,0,0,1,3.11,8.77,36.13,36.13,0,0,1-.32,8.37,4.41,4.41,0,0,1-.3,1.35,11.15,11.15,0,0,1-.9,1.37,8.51,8.51,0,0,0-1,4.3l-.46,9.21c-.08,1.64-.22,3.44-1.35,4.65-1.78,1.92-5.33,1.1-6.66-1.15a23.61,23.61,0,0,1-1.33-3.52c-1.85-4.65-7-6.91-10.86-10-3.42-2.73-8.89-8.7-8.27-13.55.55-4.35,7.32-4.67,10.58-5.31C113.35,90.25,117.26,89.42,121.17,88.61Z" fill="#343736"/><path d="M143.15,139.8s-8.85-5.72-11.45-9.36c-2.24-3.14-4.08-6.14-4.23-10.12.56-4.88,1.06-9.76,1.4-14.66.48-4.58.93-9,1.1-11.3.3-4.12-2.11-7.85-2.69-8.68,0-.13,0-.26-.08-.39V84.4a70,70,0,0,0-.13-8.74c0-.32,0-.63,0-.89a9.4,9.4,0,0,0-.3-1.66c-.07-.33-.14-.65-.22-.94-1.17-4.17-3.93-7.06-6.61-11.12l-6.49-11c-.84-1.43-3.89-7.06-6.37-11.79-.12-.31-.23-.62-.33-.92-.11-1.1-.72-2.12-.82-3.24s-.16-2.19-.26-3.29a18.8,18.8,0,0,1,.22-2.86A15.72,15.72,0,0,1,108.37,23a1.46,1.46,0,0,0-1,.58,11.45,11.45,0,0,1,1.38-1.75,12.1,12.1,0,0,1,1.32-.22c7.8-.78,14,1.39,15.52,1.65,1.4.23,6.28,2.65,7.11,3.64,1.73,2.08.66-3.75-.26-5.11-1.65-2.43-3.64-7-12.83-10.67s-10.15-2.77-14-4a6.47,6.47,0,0,1-1.07-.44,22.64,22.64,0,0,0-2.78-2.09,9.48,9.48,0,0,0-5.87-3,26.94,26.94,0,0,0-4.8.07A43.56,43.56,0,0,0,68.91,7.59c0-.11,0-.16,0-.16l0,.17a36.1,36.1,0,0,0-5.7,4.21c-1.72,1.56-4.68,5-5.14,6.64C51.77,29.07,48,44.9,47.59,46.15c-.52,1.56-4.64,16.6-4.36,18-.89,1.35-2,2.5-3.33,4A28.59,28.59,0,0,0,34.41,73c-3.47,3.82-4.51,8.5-4.34,14.4,0,1.23,0,2.32,0,3.29a38.63,38.63,0,0,0-.25,4.51c-.07.58-.12.87-.12.87L28,96.45l0,9.26a15.19,15.19,0,0,0,0,2.66l1.2.56s-.87,4.34-.52,13.7,2.6,15.44,3.12,16.48.41,3.64.58,4.68,4.51,4.34,7.11,4.86,15,.69,15,.69L52.62,154S73,152,78.4,151.4c13.35-1.37,30.22,2,29.56,2.33l5.82-1.86s5.86-12.16,1.63-.93c.19-.14,4.24,1.3,4.43,1.16l13.5-3Z" fill="none" stroke="#fff" stroke-miterlimit="10" stroke-width="0.91"/><rect x="1.05" y="102.96" width="170.08" height="39.23" rx="6.69" fill="#343736"/><path d="M119,105.24l32.28-21.11s8.38,7.14,9.93,8.69-33.41,17.91-33.41,17.91Z" fill="#343736"/><path d="M54.53,149.34,60,147.45s1.87,4,4.35,2.79,6.52-2.79,6.52-2.79l15.2,1.86,25.45.31,19.71-1.94-.46-4.27-3.42-6.83,16.14,1.56s.31,4-8.38,11.17-38.56,7.22-56.72,5.12c-17.61-2-11.25,9.16-21.8,4.5S54.53,149.34,54.53,149.34Z" fill="#343736"/><path d="M50.4,126.89a2.54,2.54,0,0,0-1-2.15,12.85,12.85,0,0,0-3.57-1.58,25.72,25.72,0,0,1-4.07-1.64c-2.72-1.47-4.09-3.46-4.09-6a5.78,5.78,0,0,1,1.1-3.47,7.19,7.19,0,0,1,3.15-2.39,11.87,11.87,0,0,1,4.61-.85,10.8,10.8,0,0,1,4.58.93,7.38,7.38,0,0,1,3.13,2.63,6.9,6.9,0,0,1,1.11,3.86h-5a3.23,3.23,0,0,0-1-2.57,4.26,4.26,0,0,0-2.92-.91,4.56,4.56,0,0,0-2.81.76,2.43,2.43,0,0,0-1,2,2.3,2.3,0,0,0,1.18,2A13,13,0,0,0,47.28,119a14.89,14.89,0,0,1,6.15,3.15,6.28,6.28,0,0,1,1.93,4.68A5.78,5.78,0,0,1,53,131.75a10.34,10.34,0,0,1-6.35,1.77,12.33,12.33,0,0,1-5-1,7.93,7.93,0,0,1-3.47-2.78,7.11,7.11,0,0,1-1.2-4.09h5c0,2.65,1.59,4,4.75,4a4.69,4.69,0,0,0,2.76-.71A2.34,2.34,0,0,0,50.4,126.89Z" fill="#db7b58"/><path d="M66.51,129.68a3.09,3.09,0,0,0,2.14-.73,2.52,2.52,0,0,0,.86-1.93H74a6.13,6.13,0,0,1-1,3.33,6.65,6.65,0,0,1-2.66,2.34,8.41,8.41,0,0,1-3.74.83,7.73,7.73,0,0,1-6-2.43,9.64,9.64,0,0,1-2.21-6.72v-.31a9.53,9.53,0,0,1,2.19-6.58,7.65,7.65,0,0,1,6-2.46,7.52,7.52,0,0,1,5.37,1.91A6.76,6.76,0,0,1,74,122H69.51a3.28,3.28,0,0,0-.86-2.27,2.85,2.85,0,0,0-2.17-.87A2.89,2.89,0,0,0,64,120.08a7.09,7.09,0,0,0-.85,3.94v.49a7.11,7.11,0,0,0,.84,4A2.91,2.91,0,0,0,66.51,129.68Z" fill="#db7b58"/><path d="M87.49,119.82a12.6,12.6,0,0,0-1.72-.13q-2.7,0-3.54,1.83v11.67H77.46V115.35H82l.13,2.13a4.43,4.43,0,0,1,4-2.46,4.73,4.73,0,0,1,1.48.22Z" fill="#db7b58"/><path d="M90.24,110.74A2.34,2.34,0,0,1,91,109a3.1,3.1,0,0,1,3.9,0,2.51,2.51,0,0,1,0,3.55,3.06,3.06,0,0,1-3.87,0A2.36,2.36,0,0,1,90.24,110.74Zm5.07,22.45H90.52V115.35h4.79Z" fill="#db7b58"/><path d="M115.92,124.44a10.8,10.8,0,0,1-1.83,6.68,6.06,6.06,0,0,1-5.11,2.4,5.56,5.56,0,0,1-4.63-2.22l-.22,1.89H99.84V107.87h4.77V117A5.44,5.44,0,0,1,109,115a6.09,6.09,0,0,1,5.11,2.4,10.8,10.8,0,0,1,1.86,6.75Zm-4.77-.37a7.17,7.17,0,0,0-.85-4,2.91,2.91,0,0,0-2.56-1.25,3.15,3.15,0,0,0-3.13,1.87v7.06a3.18,3.18,0,0,0,3.16,1.89,3,3,0,0,0,3-2.28A11.94,11.94,0,0,0,111.15,124.07Z" fill="#db7b58"/><path d="M127.72,133.52a8.73,8.73,0,0,1-6.39-2.41,8.55,8.55,0,0,1-2.46-6.41v-.46a10.69,10.69,0,0,1,1-4.81,7.58,7.58,0,0,1,2.94-3.26,8.21,8.21,0,0,1,4.34-1.15,7.43,7.43,0,0,1,5.77,2.31,9.39,9.39,0,0,1,2.1,6.55v1.94H123.7a4.4,4.4,0,0,0,1.39,2.8,4.2,4.2,0,0,0,2.94,1.06,5.16,5.16,0,0,0,4.31-2l2.34,2.63a7.13,7.13,0,0,1-2.9,2.36A9.49,9.49,0,0,1,127.72,133.52Zm-.54-14.66a3,3,0,0,0-2.3,1,4.93,4.93,0,0,0-1.13,2.75h6.62v-.38a3.54,3.54,0,0,0-.85-2.46A3.07,3.07,0,0,0,127.18,118.86Z" fill="#db7b58"/><path d="M94.19,1.05A16.89,16.89,0,0,1,96,1.13a10,10,0,0,1,6.13,3.13,22.88,22.88,0,0,1,2.73,2.05,8.6,8.6,0,0,0,.94.39,23.77,23.77,0,0,0,3.29.76,47.69,47.69,0,0,1,10.7,3.24C128.08,14,130.6,18,132.27,20.62c.21.33.4.63.59.91a11,11,0,0,1,1.2,5.44c.14.59.11.92-.1.92a.51.51,0,0,0-.62-.08c-.25,0-.56-.15-1-.62-.76-.9-5.55-3.26-6.83-3.48-.3-.05-.74-.16-1.33-.31a42.35,42.35,0,0,0-10.71-1.5,32.92,32.92,0,0,0-3.37.17,8.43,8.43,0,0,0-1.12.18l-.28.3h.5l-.5.71a14.94,14.94,0,0,0-2.47,4.8,19.73,19.73,0,0,0-.2,2.74c0,.5.09,1,.12,1.57s.08,1.12.13,1.68a7,7,0,0,0,.4,1.54,9,9,0,0,1,.42,1.64c.09.28.2.57.31.86C110,42.89,113,48.45,113.8,49.82c1.07,1.84,4.64,7.87,6.49,11,.7,1.06,1.43,2.07,2.12,3,1.88,2.61,3.65,5.07,4.53,8.18.08.31.16.64.23,1a9.63,9.63,0,0,1,.3,1.71c0,.27,0,.58.06.9a72.65,72.65,0,0,1,.13,8.79v.87l0,.21c.78,1.14,3,4.79,2.71,8.9,0,.36-.06.82-.11,1.32.06.68.09,1.36.1,2l20.85-13.64s8.38,7.14,9.93,8.69c.81.82-8.38,5.69-17.33,10.14h20.57a6.71,6.71,0,0,1,6.69,6.7V135.5a6.72,6.72,0,0,1-6.69,6.7H141.89a32.83,32.83,0,0,1-6.77,7.11c-3.78,3.1-11.56,4.87-20.65,5.71l-1.51.67q-2.17.92-4.4,1.7a20.43,20.43,0,0,1-6.15,1.35h-.3a18.66,18.66,0,0,1-3.5-.38,36.11,36.11,0,0,1-9-3c-4-.21-7.82-.53-11.23-.92a35.35,35.35,0,0,0-4-.25c-10.24,0-9.25,5.89-13.61,5.89a10.78,10.78,0,0,1-4.2-1.14c-8.63-3.81-4.53-7.8-2.75-9.13v0c-1.23,0-4-.07-6.78-.17-1.92.06-3.94.1-5.68.1a29.93,29.93,0,0,1-4.32-.2,7.75,7.75,0,0,1-5-4.51,4.92,4.92,0,0,1,0-.93.86.86,0,0,1-.07-.21c-.06-.37-.09-.9-.12-1.52v-.14H7.74a6.72,6.72,0,0,1-6.69-6.7V109.66A6.71,6.71,0,0,1,7.74,103H27.55V96.07l1.79-.36q0-.19.06-.54a37.75,37.75,0,0,1,.26-4.51c0-1,0-2.1,0-3.22-.2-6.57,1.18-11.11,4.45-14.71a29.47,29.47,0,0,1,5.52-4.84c.42-.51.82-1,1.21-1.4a24.87,24.87,0,0,0,2-2.43,8.4,8.4,0,0,1,.13-1.16,26.7,26.7,0,0,0-1.83-3.39c-1.24-2.08,3.37-8.36,5.54-11.6.28-1,.49-1.69.56-1.9s.16-.57.33-1.18c1.15-4.28,4.67-17.29,10.15-26.56A8.91,8.91,0,0,1,58.92,16h0a32.68,32.68,0,0,1,4-4.51A37,37,0,0,1,68.66,7.2l.14.19-.12-.19a43.78,43.78,0,0,1,22.2-6h.29c1.11-.1,2.12-.15,3-.14M132.7,23.52c0-.09,0-.17-.08-.25l-.05,0c0,.09.08.18.13.27m-2,1.47c-.45-.35-.91-.69-1.35-1,.15.19.27.35.34.46l1,.54M94.19,0c-.91,0-2,.05-3.06.15h-.25A45.09,45.09,0,0,0,68.15,6.29l0,0a38,38,0,0,0-5.94,4.39,33.79,33.79,0,0,0-4.06,4.6l-.1.14a10.35,10.35,0,0,0-1.35,2.39c-5.52,9.39-9,22.43-10.2,26.73l0,.06-.29,1.06c-.11.3-.38,1.25-.53,1.79l-.68,1c-3.42,5-6.14,9.33-4.79,11.57l0,.05A28.84,28.84,0,0,1,41.81,63c0,.26-.06.49-.08.68-.48.68-1.06,1.33-1.71,2.08l0,0c-.36.4-.72.81-1.1,1.26A30.6,30.6,0,0,0,33.3,72c-3.47,3.82-4.93,8.58-4.73,15.45,0,1,.05,2.12,0,3.12a38.39,38.39,0,0,0-.26,4.25l-1,.21a1,1,0,0,0-.84,1v5.85H7.74A7.75,7.75,0,0,0,0,109.66V135.5a7.75,7.75,0,0,0,7.74,7.74H30.83c0,.3,0,.56.08.8a1.29,1.29,0,0,0,.05.21,7,7,0,0,0,.05.93c.26,1.52,2.84,4.75,5.86,5.36a29.7,29.7,0,0,0,4.52.21c1.55,0,3.45,0,5.68-.09l4.29.12a4.78,4.78,0,0,0-1.08,3.42c.25,2.15,2.23,4.07,5.9,5.69a11.82,11.82,0,0,0,4.62,1.23c2.17,0,3.32-1.19,4.43-2.35,1.61-1.66,3.42-3.54,9.18-3.54a34.13,34.13,0,0,1,3.87.24c3.46.4,7.19.7,11.09.91a36.51,36.51,0,0,0,9,3,19.28,19.28,0,0,0,3.7.41h.32a21.8,21.8,0,0,0,6.48-1.4c1.43-.51,2.89-1.07,4.45-1.73l1.06-.46.32-.15c10.36-1,17.44-3,21-5.92a35.61,35.61,0,0,0,6.65-6.88h22a7.75,7.75,0,0,0,7.74-7.74V109.66a7.75,7.75,0,0,0-7.74-7.74H148.26c13.72-7,13.89-8,14-8.77a1.21,1.21,0,0,0-.34-1.07c-1.56-1.56-9.65-8.45-10-8.74a1,1,0,0,0-.68-.25,1,1,0,0,0-.57.17L131.37,95.89a.91.91,0,0,0,0-.17c0-.47.08-.9.1-1.24a15.61,15.61,0,0,0-2.76-9.37v-.68a72.32,72.32,0,0,0-.13-8.89c0-.29,0-.61-.06-.89a9.7,9.7,0,0,0-.33-1.87c-.08-.39-.15-.72-.24-1-.92-3.3-2.75-5.83-4.68-8.51-.68-1-1.39-1.94-2.09-3l-6.47-11c-.79-1.35-3.76-6.82-6.29-11.63l-.24-.67a10.14,10.14,0,0,0-.45-1.73,6.13,6.13,0,0,1-.35-1.31q-.08-.83-.12-1.65c0-.53-.08-1.06-.12-1.55a18.23,18.23,0,0,1,.17-2.48,14.1,14.1,0,0,1,2.3-4.41l.5-.7,0-.05h.13a31.91,31.91,0,0,1,3.26-.16A41.57,41.57,0,0,1,124,24.41c.67.17,1.09.28,1.41.33a24.24,24.24,0,0,1,6.21,3.12,2.31,2.31,0,0,0,1.75,1h.15a1.55,1.55,0,0,0,.47.08,1.18,1.18,0,0,0,.94-.45,1.84,1.84,0,0,0,.22-1.56,12.26,12.26,0,0,0-1.4-6c-.17-.26-.36-.55-.55-.86-1.76-2.78-4.38-6.95-13-10.35a48.69,48.69,0,0,0-10.91-3.3,21,21,0,0,1-3.15-.73,6,6,0,0,1-.68-.27,24,24,0,0,0-2.68-2A10.91,10.91,0,0,0,96.13.09,18.89,18.89,0,0,0,94.19,0Z" fill="#fff"/></g></g></svg>