<svg xmlns="http://www.w3.org/2000/svg" viewBox="0 0 178.39 172.7"><title>thoth</title><g id="e2e7230b-1e2f-4093-9c8b-6230359e6a97" data-name="Calque 2"><g id="a08d570a-61ca-41b1-a159-df1234adf770" data-name="Calque 1"><path d="M110,11.36s-6.13-8.73-15.43-9.48S71.7,3.56,61.66,12.66,45.49,47.8,44.93,49.47,36.2,61,37.87,63.78s3.72,6.14,1.49,7.62a35.47,35.47,0,0,0-8.55,6.88c-3.72,4.09-4.84,9.11-4.65,15.43a49.64,49.64,0,0,1-.37,9.29l-1.86.37,0,12.78,1.28.61s-.93,4.64-.56,14.68S27.46,148,28,149.1s0,5.21.18,6.32,2.61,4.28,5.39,4.83,18.78-.18,18.78-.18l-2,5s29-4.84,34.81-4.06c7.35,1,22,2.25,22,2.25L136.27,160l11.08-10.19s-9.48-6.14-12.26-10-5-7.62-4.47-13,2.23-20.64,2.61-25.66-3-9.49-3-9.49.6-9.65-.7-14.3-4.46-7.81-7.44-12.45S107.76,43.52,107.2,35.34s2-11.15,5.39-13.75S129.88,24,129.88,24s4.46,2.6,6.32,4.84,1.86.74.37-2.61-4.64-8.36-8.92-10-16.73-4.65-16.73-4.65" fill="#fff"/><path d="M57,17.12s-5.57,14.13-2.6,35.32,9.11,26,9.11,26l1.67-.93s-7.06-8.18-9.29-28.63S57,17.12,57,17.12Z" fill="#343736"/><path d="M61.07,13.47s-5.22,14.65-1.71,36.34,9.77,26.5,9.77,26.5l1.65-1s-7.27-8.22-10-29.16S61.07,13.47,61.07,13.47Z" fill="#343736"/><path d="M64.39,10.71s-4.34,15.52.44,37.88,11.32,27,11.32,27l1.59-1.13S70,66.33,66,44.7,64.39,10.71,64.39,10.71Z" fill="#343736"/><path d="M67.8,8s-3.1,16.6,3.46,39.79S84.7,75.4,84.7,75.4l1.5-1.29s-8.38-8-14.07-30.52S67.8,8,67.8,8Z" fill="#343736"/><path d="M70.61,6.8s-2,17.07,6.16,40.26,15.3,27.3,15.3,27.3L93.48,73s-8.91-7.68-16.13-30.18S70.61,6.8,70.61,6.8Z" fill="#343736"/><path d="M81.55,3.37a12.61,12.61,0,0,0-6.69,8.36,44.65,44.65,0,0,0-.65,19.89c1.3,7.07,5,20.08,5,20.08s8.55,23,14.31,23a46.82,46.82,0,0,0,8.46-.56s-9.67-9.48-11.9-13S78,35,77.65,32s7.62,1.39,8,2.32-3.9-6.41-6.13-10.69-3.7-7.83-2.33-12.55C78,8.2,80.39,6,84.15,5s8.09-.74,10.69,1.67,2.88,6.6,2.88,6.6,10.13.19,17.38,1.95c7,1.7,10.69,3.16,16.27,7,4.78,3.27,6.4,3.93,4.55,1.21s-3.9-7.53-13.75-11.43-10.88-3-15-4.28-5-5.39-10.41-5.94S81.55,3.37,81.55,3.37Z" fill="#343736"/><path d="M58.87,79.3s8.65-4,15-4.55,20.72-.56,20.72-.56S99.3,74,100.42,74a5.85,5.85,0,0,1,2.14.47l7.15,20L101.16,76l4.93,18.77-6.88-18.4,3.25,17.94L97.17,76.42l1.48,17.66L95.4,76.51,96,93.62,93.63,76.51,92,92.59l-.28-16.17L89.17,91.94l.56-15.43L86.85,90.73,88,76.51,84.53,90.83a49.56,49.56,0,0,1-10.79-4.19C67.89,83.58,58.87,79.3,58.87,79.3Z" fill="#343736"/><polygon points="104.97 75.58 113.34 92.59 106.46 75.4 104.97 75.58" fill="#343736"/><path d="M62.13,78.47s-1.86.74-3.26-1.68-6.78-16.35-6.69-24.53.19-1.4-1.67,3.06S46.88,65.73,45,66.76s5.57,6.5,7.8,8.45a48.79,48.79,0,0,0,12.46,7.72c1.92.88,11.61,6,19.24,7.9s-10.88-5.39-10.88-5.39Z" fill="#343736"/><path d="M104.41,74a12.78,12.78,0,0,0,5.3-6.5c1.58-4.46,2.42-7.16,2.33-9.76s-6.7-20-6.7-20,9.21,18.68,11.16,22.3,8.18,10.88,9.57,12.36,3.72,4,4,7.72.18,12.82.18,12.82l.19,1.58s-8.61,4.16-22.31,4c-16.08-.18-23.6-2.51-37.82-9.39a81,81,0,0,1-10.41-6s22.77,11.06,36,12.83,23.43-1.49,24.35-2a15.35,15.35,0,0,0,4.28-3.91c.65-1.2.19-6.32-1.58-4.18s-4.37,5-5.11,5.3-9.3-15.71-9.3-15.71Z" fill="#343736"/><path d="M87.59,28.56s3.63-12,9.48-12.09a107.33,107.33,0,0,1,18.4,1.4c5.57,1.1,12.67,3.31,16.18,6.88,3.75,3.82-1.4.46-3.07.18s-8.27-2.6-16.64-1.76-7.06,9.48-7,10.41,8.92,17.38,10.5,20.07,8.18,13.85,8.18,13.85A135.64,135.64,0,0,1,112,49.75c-4.74-9-6.51-13.94-6.79-13.11s-2.79,4.46-3.44,13.11.84,16,1.86,17.38,4.18,6.6.65,4.92S99.77,63.5,93.54,53.46,79.13,36.55,79.79,34.41s2.13,1.21,4.18-1.76A17,17,0,0,1,87.59,28.56Z" fill="#343736"/><path d="M90.62,15.94c-.43,0-.9,0-1.42,0-4.86-.3-8.21-2.08-9.37-3.71a5.17,5.17,0,0,0-2-1.79,1.26,1.26,0,0,1-1.45-.08c-.66-.55-.6-1.44.23-3.37a1.11,1.11,0,0,1,.7-.62,1.09,1.09,0,0,1,.93.15c1.17.8,2.66,1.45,3.07,1.33a5.41,5.41,0,0,0,.94-.51,8.33,8.33,0,0,1,6.65-1.46c4.6.94,5.53,2.7,6.51,4.56A8.05,8.05,0,0,0,98.57,13a1.1,1.1,0,0,1,.3,1.76l-.12-.12a2.43,2.43,0,0,1-1.49.37c-1.67,0-2.06.07-2.42.07l-.19.1A7.94,7.94,0,0,1,90.62,15.94Z" fill="#343736"/><ellipse cx="87.92" cy="10.34" rx="1.63" ry="2.51" fill="#343736"/><path d="M95.49,11.83c3.17-.52-.07-6.58-1.78-7.09,1.26-.32,3.43.82,4.34,1.79,1.09,1.16.8,3,.79,4.5a2.39,2.39,0,0,1-1.14,2.24A1.38,1.38,0,0,1,95.49,11.83Z" fill="#343736"/><path d="M110.08,24.65c-.92,0-2,2-2.6,2.66-1,1.1-2.23,3.08-2.23,4.59a10.08,10.08,0,0,0,1.11,5.58c.6,1.11,1,2,1.72,3a.46.46,0,0,0,.23-.06c0-1.34-.78-2.56-.9-3.9s-.17-2.57-.3-3.86C106.83,29.93,108.28,27.17,110.08,24.65Z" fill="#343736"/><path d="M52.93,28.84c.27,2.08-1.44,3.82-2.24,5.45a36,36,0,0,0-1.88,5.4c-.69,2.21-1.43,4.43-2.09,6.66-.37,1.26,2.2,1.24,1.93,2.56s.2,4.64-.19,6c-1.11,3.78-3.84,7-4.83,10.78-.43,1.66-1.75,1.55-1.67,3.88a9.27,9.27,0,0,0,3,5.8c1.52,1.32,3.78,2,5.42,3.29s4.09,2.49,5.16,3.91c-2.91.14-4.9.73-6.84,3-.78.9-1.73,2.77-3,3-2.12.43-1.94-1.91-2.45-3.29a11.51,11.51,0,0,0-5-6.23c-2.36-1.28-3.7.87-5.29,2.57-1,1.11-2,2.4-3,3.6s-1.25,2.89-2.3,3.53a12.88,12.88,0,0,1,1.66-7.13c.67-1.11,2.67-2.94,3.2-3.9S35,75.3,35.73,74.33c3-4,5.64-5.37,6.22-10.43A52.2,52.2,0,0,1,44,55" fill="#343736"/><path d="M31.21,101.57a5.7,5.7,0,0,0,2.78-.52c2.4-1,4.44-2.65,6.66-4s4.82-2.4,7.37-1.91a8,8,0,0,0,1.94.3c2.92-.16,3.43-4.69,6.1-5.89a.7.7,0,0,1,.58-.06.74.74,0,0,1,.32.43c.67,1.8.33,3.81.66,5.69.63,3.5,3.48,6.13,6.35,8.22,1.14.82,2.44,1.85,2.4,3.26-1.91-.13-4.35,0-5,1.84-.77,2.08,1.7,4.11,1.54,6.32a2.89,2.89,0,0,1-3.78,2.36c2.36,3.31,3,7.65,5.56,10.81,2.3,2.82,5.81,4.31,9.18,5.69l-12.28,1c-.22-1.44-2.4-1.56-3.55-.67s-1.86,2.31-3.11,3-3,.62-4.57.46a136.1,136.1,0,0,0-14.83-.72c3.4-.29,4.23-.41,7.19-2.12a33.46,33.46,0,0,0,3.92-2.84c.33-.39,2.37-3,2.59-3.48,2.61-5.36,3.14-9.38,1.07-15,.84-.84,2.71.33,3.32-.69a1.59,1.59,0,0,0,.13-.92l-.55-11.55a.8.8,0,0,0-.15-.52.76.76,0,0,0-.57-.17,83.26,83.26,0,0,0-21.29,2,9.08,9.08,0,0,0-3.62,1.43,3.35,3.35,0,0,0-1.36,3.42c-.44-1.48-.46-11.53.75-11.94C27.06,97.66,28,101.22,31.21,101.57Z" fill="#343736"/><path d="M30.14,114.05c5.63-.33,13.07-.28,18.56-1.59.34.31.88,1.77.48,2s-3.31,0-3.77,0c-3.82-.14-6.42.38-10.24.51-2.56.09-5.47.36-8,.7-.33,0-2.88.48-3.21.48-.14,0-.1-7.22,1.12-7.8,0,.61.14,5.52-.21,6.06C25.07,114.34,27.65,114.2,30.14,114.05Z" fill="#343736"/><path d="M130.37,92a6.35,6.35,0,0,0,.7,2.1c.27.45.65.82.91,1.28a5.35,5.35,0,0,1,.49,2.54c.31,11.94-1.07,23.84-2.45,35.7.16-.66-.8-1-1.48-1l-6.87.07a7.47,7.47,0,0,1-2.94-.36,18.26,18.26,0,0,1-3-1.54c-4.91-4-6.87-5.85-11.8-10.41-1.15-1.06-3.61-3.11-4.65-4.27s-2.44-2.61-3.52-3.72C94.37,111,92.49,109,91,107.65a39.94,39.94,0,0,1-3.7-3.66,28.94,28.94,0,0,0-7.06-6.08c1.87-.62,3.71.93,5.07,2.36q5.14,5.4,10,11a3.28,3.28,0,0,0,2,1.36c1.63.18,2.47-2,2.45-3.59s-.16-3.65,1.21-4.55c2,1.06,1,4.34,2.47,6.09a5.3,5.3,0,0,0,1.7,1.22,10.65,10.65,0,0,0,4.9,1.66,10.55,10.55,0,0,0,4.18-1.22l7.56-3.41a2.14,2.14,0,0,0,1.56-2.14l1.42-9.11.65,6a2.11,2.11,0,0,0,2.15,2.31l3.48.68a1.08,1.08,0,0,1,.8.42c.32.6-.56,1.1-1.23,1.18a22.48,22.48,0,0,1-4.1.16c-1.56,2.23.11,6-2,7.7-.4.34-.93.58-1.13,1.06a2.45,2.45,0,0,0,.26,1.7c.87,2.33.31,4.91.41,7.4s1.36,5.36,3.83,5.68a121.6,121.6,0,0,1,2.64-24.83,37.17,37.17,0,0,0,1.09-5.6c.25-3.33-.61-6.64-1.46-9.87-.38-1.43-1.45-3.68-1-5.13C129.67,88.3,130,90.15,130.37,92Z" fill="#343736"/><path d="M52.1,88.23a15.74,15.74,0,0,1,1.36,5.2A9.75,9.75,0,0,1,61.67,93c3.21,1.32,5.44,4.24,7.5,7l3.34,4.51A1.78,1.78,0,0,1,73,105.7c-.11,1.2-2,.94-3,1.71a2.92,2.92,0,0,0-.67,2.46c.11,2.75.39,5.86,2.54,7.58a6.49,6.49,0,0,1,1.65,1.42,3.48,3.48,0,0,1,.31,2.09,18.78,18.78,0,0,1-1.83,6.78,9.29,9.29,0,0,0-1.25,3.39,2.43,2.43,0,0,0,1.89,2.67,3.78,3.78,0,0,1,2.15-1.74c.92-.2,2,.47,2,1.41,0,.27-.13.56,0,.78a.76.76,0,0,0,.67.23c7.69,0,13.49-7.25,21-9,.31-.07,1.89-.95,2.19-.83,2.41.93-1.1-1.76-1.92-2.66-1.48-1.62-2.82-3.39-4.45-4.87-5.81-5.3-8.41-7.69-12.41-11.15a29.41,29.41,0,0,1-3.36-2.83,3.9,3.9,0,0,1-.86-4,2.09,2.09,0,0,0,.31-.85,1.57,1.57,0,0,0-.51-1c-1.34-1.47-2.86-3-3-5a5.56,5.56,0,0,0-.23-2.16,3.25,3.25,0,0,0-1.72-1.33L60.69,83.34c-3.7-1.7-7.89-3.43-11.7-2A3.33,3.33,0,0,0,46.92,83c-.63,1.57.66,1.8,1.61,2.28C50.07,86.09,51.23,86.6,52.1,88.23Z" fill="#343736"/><path d="M55.66,107.91a86.14,86.14,0,0,0,1.85,17.78c.47,2,1.13,4.14,2.68,5.54s4,1.89,6.24,2.21,4.32.45,6.66.79c1.07-5.31,2.49-10.39,3.55-15.7a22.33,22.33,0,0,0,.65-5.86c-.19-2.93-1.51-5.64-2.8-8.27L70.7,96.67a14.37,14.37,0,0,0-1.91-3.17c-1.67-1.91-10.36-6.41-12.34-4.13-1.47,1.69-.75,6.4-.79,8.49Q55.56,102.89,55.66,107.91Z" fill="#343736"/><path d="M25.8,118.81c-.26,5,1.93,7.75,3,7.8,11.28.53-1.71,11.53-1.41,14.75.08.86,1.16,1.74,1.86,1.23.45-.32.4-1,.56-1.53.36-1.15,1.77-1.61,3-1.62a9.78,9.78,0,0,0,3.59-.21,18,18,0,0,0-4.8,2.34A6,6,0,0,0,29,146.09a5.12,5.12,0,0,1-.05,1.3,1,1,0,0,1-.93.76c-.22-1-.44-1.93-.65-2.9-1.36-6.48-2.77-16.85-2.53-23.47" fill="#343736"/><path d="M55.3,147.07c.59,4.29,1.5,8.68,4.45,11.85.33-1-.61-2-1.14-3a11.28,11.28,0,0,1-.72-2.65c-1.53-6.42-1.26-9.66-.87-14.49.15-1.86.64-3.69.81-5.53-3-.73-5.35,1.42-4.06,4.26a10.44,10.44,0,0,1,.92,3.76C54.92,143.1,55.06,145.38,55.3,147.07Z" fill="#343736"/><path d="M59.25,144.94a28.63,28.63,0,0,0,.27,4.53,13.8,13.8,0,0,0,2.91,7.16A8.09,8.09,0,0,0,64.8,159a9.65,9.65,0,0,0,4.49.92l5.9.26a6.5,6.5,0,0,1,2.36.39,11.26,11.26,0,0,1,1.21.71,9,9,0,0,0,4,1.29,1.47,1.47,0,0,0,.66-.05,1.18,1.18,0,0,0,.48-1.62,3.57,3.57,0,0,0-1.36-1.31c-4.45-3-8.68-7.11-9.58-12.4l.84,6.68a1.87,1.87,0,0,1-.19,1.4,1.79,1.79,0,0,1-1.11.53,30.25,30.25,0,0,1-3.9.55,6.56,6.56,0,0,1-2.34-.14c-2.12-.62-3.89-3.46-4.49-5.58a31.75,31.75,0,0,1-.74-8.92c.06-2.69,1.86-8,2.32-9.48C60.25,132.22,59.41,142.88,59.25,144.94Z" fill="#343736"/><path d="M76.35,136.33a23.38,23.38,0,0,0,3.6,17.4,3.28,3.28,0,0,1,.84,2.21c-.13.8-1.36,1.32-1.75.61-.6,1.13.35,2.45,1.29,3.34a38.55,38.55,0,0,0,19.21,9.84,19.35,19.35,0,0,0,4.08.41,21.74,21.74,0,0,0,6.59-1.44q2.4-.84,4.72-1.83c4.29-1.81,8.45-3.93,12.61-6.05,1-.48,5.47-1.36,6.49-1,4.3,1.37.67-.3.75-.75s-4.78-2.46-4.76-2.82a2.48,2.48,0,0,0-.67-1.49L122,145c.37.58-.17,1.4-.84,1.55a3.21,3.21,0,0,1-2-.4q-2.49-1.12-4.87-2.45a6.13,6.13,0,0,1-2.2,3.1,3.47,3.47,0,0,1-3.65.27,4.87,4.87,0,0,1,2.1,2.47c.34,1.05-3.6.06-4.44.78s-1.08.16-2-.25c-8.87-4-12.39,2.89-19.85,1.29a8,8,0,0,1-1.86-.56,9.16,9.16,0,0,1-1.19-.75,6.52,6.52,0,0,1-2-1.87,6.36,6.36,0,0,1-.64-2.67c-.36-3.73-.68-7.65.81-11.09a1.6,1.6,0,0,0,.19-.77c-.08-.83-1.52-1-2.12-.68C76.62,133.47,76.52,135.46,76.35,136.33Z" fill="#343736"/><path d="M85.9,102.73a96.3,96.3,0,0,0,11.81,11,3.49,3.49,0,0,0,2.48,1c1.37-.19,2-1.89,1.8-3.26s-.91-2.62-1.08-4a10.84,10.84,0,0,0-.29-2.55,1.77,1.77,0,0,1-.18-.71c0-.41.47-.66.85-.84,4-2,8.12-3.93,12.54-4.45.79-.1,1.76-.3,1.94-1.06a1.31,1.31,0,0,0-1.1-1.42,4.47,4.47,0,0,0-2,.21,27.45,27.45,0,0,1-7.41.54,87.6,87.6,0,0,1-30.94-6.76c-2.59-1.09-2.41,3.28-2,4.86a3,3,0,0,0,2.92,2.39c1.7.22,3.36,0,5,.54C82.65,99.07,84.28,100.94,85.9,102.73Z" fill="#343736"/><path d="M107.3,126.81l3.07,1.51,6.74,3.3-15.92-6.23a4.08,4.08,0,0,0-1.8-.41c-.4,0-2.77,1-2.81.06,0-.66,1.69-1,2.11-1.07C101.53,123.66,104.84,125.61,107.3,126.81Z" fill="#343736"/><path d="M108.34,135.27a44.2,44.2,0,0,1,9.1,5.29l4.45,3.34c.2.15,1.26-1.39,1.39-1.17a1.76,1.76,0,0,1,.18.82,5,5,0,0,1-1.31,3.39,1.21,1.21,0,0,1-.57.41,1.42,1.42,0,0,1-1-.26l-3.66-2c-1.33-.73-2.67-1.46-3.93-2.3-1.07-.72-2.08-1.52-3.2-2.16a13.75,13.75,0,0,0-10.55-1.32,52.71,52.71,0,0,1,7.8,2.16,11.45,11.45,0,0,1,3.34,1.7,4.51,4.51,0,0,1,1.8,3.18.89.89,0,0,1-.15.64,1,1,0,0,1-.75.24c-1.81,0-3.53-.75-5.31-1.15a13.52,13.52,0,0,0-5.63,0,3.82,3.82,0,0,0,2.73,1,31.16,31.16,0,0,1,7.37,1.75c2.71,1,5.5,2.45,8.34,1.92a6.36,6.36,0,0,0,4.46-9.25c-1-1.88-3.72-1.43-5.5-2.6l-3.16-2.06a38.41,38.41,0,0,0-4.41-2.61,25.38,25.38,0,0,0-11-2.22,2.82,2.82,0,0,0-2.12.64c.77.73,4.43.82,5.66,1A20.25,20.25,0,0,1,108.34,135.27Z" fill="#343736"/><path d="M119.41,141.35a2.31,2.31,0,0,1,.31,1.44,7.89,7.89,0,0,1-.34,2.11c-.21.72-.68,1.51-1.42,1.5-.17,0-.42,0-.4.19a.26.26,0,0,0,.08.13,3.75,3.75,0,0,0,2.8.82,4.21,4.21,0,0,0,1.54-.24,3.63,3.63,0,0,0,2-3.47,2.62,2.62,0,0,0-.26-1.33,2.39,2.39,0,0,0-.84-.86,7.24,7.24,0,0,0-2.58-1c-.53-.12-2-.67-2.42-.41A4.91,4.91,0,0,1,119.41,141.35Z" fill="#343736"/><path d="M123.73,141.9a1.65,1.65,0,0,0,1.29-.75,4,4,0,0,1,.32-.69c.11-.13.26-.23.36-.37a1.12,1.12,0,0,0,0-1.07,6.15,6.15,0,0,0-.69-1.15l-2.82-3.93a21.69,21.69,0,0,1,3,2.66,5.13,5.13,0,0,1,1.37,3.67,3,3,0,0,1-2.47,2.74,4.54,4.54,0,0,1-1,3.26.84.84,0,0,1-.48.35.66.66,0,0,1-.67-.41,1.88,1.88,0,0,1-.12-.82,23.47,23.47,0,0,1,.2-2.78c0-.44,0-.77.38-.85S123.32,141.94,123.73,141.9Z" fill="#343736"/><path d="M106.71,98.59c-2.1-.07-4.29-.39-6.21.44a5.73,5.73,0,0,0-3.4,5,7.67,7.67,0,0,0,.26,2,13,13,0,0,0,15.33,9.59,2.9,2.9,0,0,0,2-1.17c-1.42-1.58-4.06-1.13-5.85-2.25a11,11,0,0,1-3.25-6.34,5.85,5.85,0,0,1,2.49-4.38c.61-.5,3.39-1.82,2.76-2.88C110.54,98.12,107.39,98.62,106.71,98.59Z" fill="#343736"/><path d="M120.5,133.71a21.56,21.56,0,0,1,2.88,2.93,9.09,9.09,0,0,1,1.49,2.06,3.16,3.16,0,0,1,.21,2.48,4.64,4.64,0,0,0,0-5.28,7.44,7.44,0,0,1-.92-1.32c-.15-.32-.21-.68-.36-1-.51-1.07-1.83-1.41-3-1.63-1.75-.34-3.81-1.06-5.57-1C117,132,118.9,132.45,120.5,133.71Z" fill="#343736"/><path d="M89,71.77a8.84,8.84,0,0,1,4.46,6.88c.37,2.6-.37,20-.37,20L76.72,95S79,78.08,78,75.86,75.6,71,75.6,71s9.11,3.63,10,3a16.72,16.72,0,0,0,2.23-1.92Z" fill="#fff"/><path d="M86,11.55a2,2,0,0,0,.65.48,3.34,3.34,0,0,0,3.5-.41l-.5,1a.92.92,0,0,1-.3.4,1,1,0,0,1-.44.11c-.56,0-1.11.05-1.66.05A5.63,5.63,0,0,1,85.78,13a7.15,7.15,0,0,1-1-.37l-1.72-.75a2.26,2.26,0,0,1-1.28-1,7.36,7.36,0,0,0,2.07.44c-.17-.15-.09-.45.05-.63s.34-.35.38-.58a.54.54,0,0,1,0-.22c.06-.1.19-.11.3-.13a2.51,2.51,0,0,0,1.26-.6C86.33,10,85.26,10.66,86,11.55Z" fill="#fff"/><path d="M117.24,61.36s3.72,17.85,2.42,21a100.7,100.7,0,0,0-3,9.85l10.6-3,2.41-1.12s-1.67-4.65-3.53-11.89S119,61.36,119,61.36Z" fill="#fff"/><path d="M96.7,16.85s15.06-1,21.1.27,13.47,4.37,14.87,5.3a6.76,6.76,0,0,1,2.72,2.71c.24.55.21,1.41-.38,1.52a1.26,1.26,0,0,1-.88-.35c-2.65-1.95-5.89-2.88-9-3.78L119.68,21a26.93,26.93,0,0,0-2.82-.68,25.37,25.37,0,0,0-3.48-.27l-8.94-.3A34.23,34.23,0,0,1,97.36,19a2,2,0,0,1-1.23-.69C95.87,17.92,96.22,16.88,96.7,16.85Z" fill="#343736"/><path d="M123.73,95A5.62,5.62,0,0,0,126.2,94c.55-.43.92-1.05,1.43-1.52a1.69,1.69,0,0,1,1.91-.42,2.06,2.06,0,0,1,.62.69,21.82,21.82,0,0,1,3.34,9.4,39.65,39.65,0,0,1-.34,9,5.55,5.55,0,0,1-.33,1.45,11.55,11.55,0,0,1-1,1.46,9.28,9.28,0,0,0-1,4.61l-.5,9.87c-.08,1.77-.24,3.69-1.44,5-1.91,2.05-5.72,1.18-7.14-1.23a26,26,0,0,1-1.43-3.78c-2-5-7.45-7.4-11.64-10.74-3.67-2.93-9.53-9.33-8.87-14.53.6-4.66,7.85-5,11.35-5.69C115.35,96.73,119.54,95.84,123.73,95Z" fill="#343736"/><path d="M147.29,149.85s-9.48-6.14-12.27-10c-2.4-3.36-4.38-6.58-4.54-10.84.6-5.23,1.14-10.47,1.51-15.72.51-4.91,1-9.69,1.17-12.11.33-4.41-2.26-8.41-2.88-9.3l-.09-.42c0-.29,0-.61,0-1a76.7,76.7,0,0,0-.14-9.38c0-.34,0-.67-.06-1a9.86,9.86,0,0,0-.32-1.78c-.07-.35-.15-.69-.24-1-1.25-4.46-4.21-7.56-7.08-11.92-2-3.35-5.8-9.81-7-11.78-.91-1.54-4.18-7.58-6.83-12.64q-.19-.49-.36-1c-.12-1.17-.77-2.27-.88-3.47s-.16-2.35-.27-3.53A20.09,20.09,0,0,1,107.3,30,16.75,16.75,0,0,1,110,24.65a1.64,1.64,0,0,0-1,.62,11.94,11.94,0,0,1,1.48-1.87,11.53,11.53,0,0,1,1.41-.23c8.37-.84,15,1.48,16.64,1.76,1.5.25,6.74,2.84,7.62,3.91,1.86,2.23.71-4-.28-5.49-1.76-2.6-3.9-7.53-13.75-11.43s-10.88-3-15-4.28A7.77,7.77,0,0,1,106,7.17a23.62,23.62,0,0,0-3-2.24C101.42,3.48,99.8,2,96.73,1.7a27.3,27.3,0,0,0-5.16.07A46.54,46.54,0,0,0,67.72,8.13c0-.11,0-.17,0-.17l0,.18a39.48,39.48,0,0,0-6.11,4.52c-1.84,1.67-5,5.39-5.5,7.12C49.34,31.15,45.31,48.13,44.86,49.47c-.55,1.67-5,17.79-4.67,19.32a52.84,52.84,0,0,1-3.57,4.34,31.44,31.44,0,0,0-5.88,5.15C27,82.37,25.9,87.39,26.09,93.71c0,1.32,0,2.49,0,3.53a41.39,41.39,0,0,0-.27,4.83c-.07.62-.13.93-.13.93l-1.86.37,0,9.94a16.06,16.06,0,0,0,0,2.84l1.28.61s-.93,4.64-.56,14.68S27.39,148,28,149.1s.44,3.91.62,5,4.84,4.65,7.63,5.21,16.1.74,16.1.74l-2,5s21.85-2.21,27.64-2.81c14.31-1.47,32.39,2.18,31.69,2.5l6.23-2s6.29-13,1.75-1c.2-.14,4.54,1.39,4.74,1.25l14.47-3.24Z" fill="none" stroke="#fff" stroke-miterlimit="10" stroke-width="0.98"/><rect x="1.12" y="110.36" width="176.15" height="42.05" rx="7.17" fill="#343736"/><path d="M121.39,112.8,156,90.18s9,7.65,10.65,9.31-35.81,19.19-35.81,19.19Z" fill="#343736"/><path d="M52.3,160.07l5.88-2s2,4.32,4.66,3,7-3,7-3l16.3,2,27.28.33,21.13-2.08-.5-4.57-3.66-7.32,17.3,1.66s.33,4.33-9,12-41.33,7.73-60.79,5.49c-18.88-2.18-12.06,9.81-23.37,4.82S52.3,160.07,52.3,160.07Z" fill="#343736"/><path d="M94.81,1.12a19.5,19.5,0,0,1,2,.09,10.75,10.75,0,0,1,6.56,3.35,25.17,25.17,0,0,1,2.93,2.2,7.51,7.51,0,0,0,1,.42A26.09,26.09,0,0,0,110.8,8a51,51,0,0,1,11.48,3.47c8.86,3.51,11.56,7.79,13.35,10.63.22.35.43.68.63,1a12,12,0,0,1,1.29,5.83c.15.63.12,1-.11,1a.67.67,0,0,1-.36-.16.7.7,0,0,1-.3.07c-.27,0-.61-.16-1-.65-.81-1-5.95-3.51-7.33-3.74-.31-.05-.79-.17-1.41-.33a45.86,45.86,0,0,0-11.49-1.61c-1.15,0-2.36.06-3.61.18a9.39,9.39,0,0,0-1.2.2,3,3,0,0,0-.3.32l.53,0-.54.75a16.11,16.11,0,0,0-2.64,5.14,21,21,0,0,0-.21,2.94c0,.53.09,1.11.13,1.69s.08,1.2.14,1.79a7.36,7.36,0,0,0,.42,1.66,8.48,8.48,0,0,1,.45,1.75c.1.31.22.62.33.93,2.7,5.13,5.93,11.09,6.8,12.56,1.15,2,5,8.43,7,11.79.76,1.14,1.53,2.22,2.28,3.26,2,2.79,3.92,5.43,4.85,8.77.09.32.17.68.25,1a10.14,10.14,0,0,1,.33,1.83c0,.29,0,.62,0,1a77.45,77.45,0,0,1,.15,9.42v.93l.06.22c.84,1.23,3.23,5.14,2.91,9.54,0,.39-.07.88-.12,1.42.07.73.1,1.46.1,2.19L156,90.18s9,7.65,10.65,9.31c.87.87-9,6.09-18.58,10.87h22a7.2,7.2,0,0,1,7.17,7.17v27.71a7.2,7.2,0,0,1-7.17,7.17H145.94a35,35,0,0,1-7.26,7.63c-4.05,3.32-12.39,5.22-22.13,6.11l-1.62.72q-2.33,1-4.72,1.83a21.74,21.74,0,0,1-6.59,1.44h-.32a19.85,19.85,0,0,1-3.76-.41,38.43,38.43,0,0,1-9.61-3.22c-4.3-.22-8.39-.56-12-1a36.31,36.31,0,0,0-4.27-.27c-11,0-9.92,6.32-14.59,6.32a11.75,11.75,0,0,1-4.51-1.23c-9.25-4.08-4.86-8.36-3-9.79h0c-1.33,0-4.27-.08-7.27-.19-2.06.06-4.22.1-6.09.1a30.75,30.75,0,0,1-4.63-.21c-2.78-.55-5.2-3.71-5.39-4.83a7.17,7.17,0,0,1,0-1,.74.74,0,0,1-.08-.22c-.06-.4-.09-1-.13-1.63v-.16H8.29a7.2,7.2,0,0,1-7.17-7.17V117.53a7.2,7.2,0,0,1,7.17-7.17H23.38V103l1.92-.38c0-.14,0-.34.07-.58a43.29,43.29,0,0,1,.27-4.84c0-1.06,0-2.24,0-3.45-.21-7,1.27-11.91,4.77-15.77a31.92,31.92,0,0,1,5.92-5.19c.44-.53.88-1,1.29-1.5a25.66,25.66,0,0,0,2.11-2.6,8.51,8.51,0,0,1,.14-1.25,29.23,29.23,0,0,0-2-3.63c-1.34-2.23,3.61-9,5.94-12.43.3-1.07.51-1.81.59-2s.18-.61.35-1.26c1.24-4.59,5-18.53,10.89-28.47A9.59,9.59,0,0,1,57,17.14v0h0a35,35,0,0,1,4.25-4.83,40.15,40.15,0,0,1,6.19-4.58l.14.2-.12-.21a47,47,0,0,1,23.8-6.43h.31c1.19-.11,2.27-.16,3.23-.16m41.28,24.09c0-.09-.06-.18-.08-.26l-.07,0,.15.29M134,26.78c-.48-.37-1-.73-1.44-1.06a3.9,3.9,0,0,1,.36.49c.37.19.74.38,1.08.57M94.81,0c-1,0-2.08.05-3.28.16h-.26A48.2,48.2,0,0,0,66.9,6.75h0a40.85,40.85,0,0,0-6.37,4.71,35.7,35.7,0,0,0-4.35,4.93l-.11.15a10.89,10.89,0,0,0-1.44,2.56c-5.92,10.07-9.69,24-10.94,28.65l0,.06L43.34,49c-.11.33-.4,1.35-.56,1.92-.23.33-.47.69-.74,1.07-3.66,5.37-6.58,10-5.13,12.41l0,0a31.09,31.09,0,0,1,1.73,3.15c0,.28-.07.52-.08.73-.52.72-1.14,1.43-1.84,2.23l0,0c-.38.43-.78.88-1.18,1.37a32.33,32.33,0,0,0-6,5.27c-3.72,4.09-5.28,9.2-5.07,16.56,0,1.11.05,2.27,0,3.34a40.92,40.92,0,0,0-.28,4.56l-1.09.22a1.12,1.12,0,0,0-.9,1.1v6.26h-14A8.3,8.3,0,0,0,0,117.53v27.71a8.3,8.3,0,0,0,8.29,8.29H26.9c0,.32.05.61.09.85a1.32,1.32,0,0,0,.05.23,6.31,6.31,0,0,0,.06,1c.27,1.63,3,5.1,6.27,5.74a30.35,30.35,0,0,0,4.85.23c1.66,0,3.7,0,6.08-.1,1.65.06,3.27.1,4.6.13a5.13,5.13,0,0,0-1.15,3.66c.27,2.32,2.39,4.37,6.32,6.1a12.51,12.51,0,0,0,5,1.33c2.32,0,3.55-1.28,4.75-2.52,1.71-1.78,3.66-3.8,9.84-3.8a37,37,0,0,1,4.14.26c3.71.43,7.7.75,11.89,1a38.59,38.59,0,0,0,9.69,3.22,20.49,20.49,0,0,0,4,.43h.35a23.06,23.06,0,0,0,6.93-1.51c1.54-.53,3.1-1.14,4.78-1.85l1.13-.49.35-.16c11.1-1,18.69-3.17,22.56-6.35a37.76,37.76,0,0,0,7.13-7.37H170.1a8.3,8.3,0,0,0,8.29-8.29V117.53a8.3,8.3,0,0,0-8.29-8.29H152.77c14.7-7.48,14.88-8.58,15-9.4a1.3,1.3,0,0,0-.36-1.14c-1.68-1.68-10.34-9.06-10.71-9.38a1.16,1.16,0,0,0-.73-.26,1.14,1.14,0,0,0-.61.18l-20.7,13.54c0-.06,0-.12,0-.18,0-.51.08-1,.11-1.34a16.79,16.79,0,0,0-3-10v-.73a77.19,77.19,0,0,0-.15-9.52c0-.31,0-.65-.06-1a11.18,11.18,0,0,0-.35-2c-.09-.42-.17-.77-.26-1.09-1-3.54-3-6.25-5-9.13-.73-1-1.49-2.07-2.24-3.2-2-3.36-5.79-9.79-6.94-11.75-.84-1.44-4-7.31-6.73-12.46l-.27-.72a9.42,9.42,0,0,0-.48-1.85,6.57,6.57,0,0,1-.37-1.41c0-.59-.09-1.18-.13-1.77s-.08-1.13-.13-1.66a19.09,19.09,0,0,1,.19-2.66,15.17,15.17,0,0,1,2.45-4.72l.54-.75,0-.06H112a33.89,33.89,0,0,1,3.5-.18,44.23,44.23,0,0,1,11.2,1.58c.72.18,1.17.29,1.52.35a25.91,25.91,0,0,1,6.65,3.35,2.48,2.48,0,0,0,1.88,1.05h.15a1.52,1.52,0,0,0,.51.09,1.3,1.3,0,0,0,1-.49,2,2,0,0,0,.24-1.66,13.26,13.26,0,0,0-1.51-6.41c-.19-.28-.38-.59-.59-.93-1.88-3-4.7-7.45-13.9-11.1A52.52,52.52,0,0,0,111,6.89a24.41,24.41,0,0,1-3.38-.78,5.81,5.81,0,0,1-.73-.29A25.23,25.23,0,0,0,104,3.67,11.66,11.66,0,0,0,96.89.1,18.58,18.58,0,0,0,94.81,0Z" fill="#fff"/><path d="M56.35,122.79H48v22.63H41.3V122.79H33.11v-5.17H56.35Z" fill="#db7b58"/><path d="M65.83,127a7.07,7.07,0,0,1,10.42-.57q1.74,2,1.78,6v13H71.57V132.53a3.65,3.65,0,0,0-.66-2.41,2.88,2.88,0,0,0-2.28-.78,3.08,3.08,0,0,0-2.8,1.26v14.82H59.39V116.09h6.44Z" fill="#db7b58"/><path d="M81.51,134.9a12.23,12.23,0,0,1,1.2-5.51,8.63,8.63,0,0,1,3.46-3.71,10.37,10.37,0,0,1,5.29-1.3,9.51,9.51,0,0,1,7.31,2.87,11,11,0,0,1,2.68,7.82v.23A10.71,10.71,0,0,1,98.76,143a9.52,9.52,0,0,1-7.26,2.83,9.67,9.67,0,0,1-7.09-2.64A10.38,10.38,0,0,1,81.53,136Zm6.44.4a7.67,7.67,0,0,0,.89,4.2,3,3,0,0,0,2.66,1.34c2.29,0,3.46-1.77,3.51-5.29v-.65q0-5.57-3.55-5.56c-2.15,0-3.32,1.6-3.49,4.79Z" fill="#db7b58"/><path d="M112.35,119.62v5.14h3.4v4.47h-3.4v9.45a2.39,2.39,0,0,0,.42,1.62,2.24,2.24,0,0,0,1.66.46,10.24,10.24,0,0,0,1.61-.11v4.6a11.87,11.87,0,0,1-3.63.55,6.78,6.78,0,0,1-4.91-1.56,6.46,6.46,0,0,1-1.58-4.76V129.23h-2.64v-4.47h2.64v-5.14Z" fill="#db7b58"/><path d="M125.7,127a7.08,7.08,0,0,1,10.43-.57q1.74,2,1.77,6v13h-6.45V132.53a3.59,3.59,0,0,0-.67-2.41,2.84,2.84,0,0,0-2.27-.78,3.11,3.11,0,0,0-2.81,1.26v14.82h-6.43V116.09h6.43Z" fill="#db7b58"/></g></g></svg>